<mxfile host="65bd71144e">
    <diagram id="uBYNrjvko5i_DpOKnH1j" name="第 1 页">
        <mxGraphModel dx="1504" dy="1735" grid="1" gridSize="10" guides="1" tooltips="1" connect="1" arrows="1" fold="1" page="1" pageScale="1" pageWidth="827" pageHeight="1169" background="none" math="0" shadow="0">
            <root>
                <mxCell id="0"/>
                <mxCell id="1" parent="0"/>
                <mxCell id="346" value="" style="endArrow=none;dashed=1;html=1;strokeWidth=2;fontFamily=Times New Roman;entryX=1;entryY=0.25;entryDx=0;entryDy=0;" parent="1" edge="1">
                    <mxGeometry width="50" height="50" relative="1" as="geometry">
                        <mxPoint x="288.5" y="1043.75" as="sourcePoint"/>
                        <mxPoint x="288" y="-283.7500000000002" as="targetPoint"/>
                    </mxGeometry>
                </mxCell>
                <mxCell id="345" value="" style="endArrow=none;dashed=1;html=1;strokeWidth=2;fontFamily=Times New Roman;entryX=1;entryY=0.25;entryDx=0;entryDy=0;" parent="1" edge="1">
                    <mxGeometry width="50" height="50" relative="1" as="geometry">
                        <mxPoint x="580" y="1030" as="sourcePoint"/>
                        <mxPoint x="579.5" y="-297.5" as="targetPoint"/>
                    </mxGeometry>
                </mxCell>
                <mxCell id="35" value="C_PC[3:2]" style="text;html=1;align=center;verticalAlign=middle;resizable=0;points=[];autosize=1;strokeColor=none;fillColor=none;fontFamily=Times New Roman;" parent="1" vertex="1">
                    <mxGeometry x="-140" y="170" width="80" height="30" as="geometry"/>
                </mxCell>
                <mxCell id="100" style="edgeStyle=none;html=1;exitX=0.535;exitY=0;exitDx=0;exitDy=0;fontFamily=Times New Roman;exitPerimeter=0;" parent="1" source="49" edge="1">
                    <mxGeometry relative="1" as="geometry">
                        <mxPoint x="90" y="-90" as="targetPoint"/>
                    </mxGeometry>
                </mxCell>
                <mxCell id="138" style="edgeStyle=none;rounded=1;html=1;exitX=1;exitY=0.5;exitDx=0;exitDy=0;entryX=0;entryY=0.5;entryDx=0;entryDy=0;strokeWidth=1;fontFamily=Times New Roman;" parent="1" source="49" target="65" edge="1">
                    <mxGeometry relative="1" as="geometry"/>
                </mxCell>
                <mxCell id="59" value="IF1-PC[3:2]" style="edgeStyle=none;html=1;fontFamily=Times New Roman;entryX=1;entryY=0.5;entryDx=0;entryDy=0;" parent="1" target="55" edge="1">
                    <mxGeometry x="0.0048" relative="1" as="geometry">
                        <mxPoint x="460" y="110" as="sourcePoint"/>
                        <mxPoint as="offset"/>
                    </mxGeometry>
                </mxCell>
                <mxCell id="55" value="MUX" style="shape=trapezoid;perimeter=trapezoidPerimeter;whiteSpace=wrap;html=1;fixedSize=1;fontFamily=Times New Roman;direction=east;rotation=90;" parent="1" vertex="1">
                    <mxGeometry x="400" y="-15" width="120" height="50" as="geometry"/>
                </mxCell>
                <mxCell id="62" value="" style="endArrow=none;dashed=1;html=1;dashPattern=1 3;strokeWidth=2;fontFamily=Times New Roman;entryX=1;entryY=0.25;entryDx=0;entryDy=0;strokeColor=none;" parent="1" edge="1">
                    <mxGeometry width="50" height="50" relative="1" as="geometry">
                        <mxPoint x="290" y="1020" as="sourcePoint"/>
                        <mxPoint x="289.9999999999998" y="-335" as="targetPoint"/>
                    </mxGeometry>
                </mxCell>
                <mxCell id="76" style="edgeStyle=none;html=1;exitX=1;exitY=0.5;exitDx=0;exitDy=0;entryX=0.5;entryY=1;entryDx=0;entryDy=0;fontFamily=Times New Roman;fontSize=17;" parent="1" source="65" target="55" edge="1">
                    <mxGeometry relative="1" as="geometry"/>
                </mxCell>
                <mxCell id="oWSXfFwjr7zpqWsgmYsp-98" style="edgeStyle=orthogonalEdgeStyle;rounded=0;orthogonalLoop=1;jettySize=auto;html=1;exitX=1;exitY=0.25;exitDx=0;exitDy=0;entryX=0.289;entryY=1.013;entryDx=0;entryDy=0;entryPerimeter=0;" parent="1" source="65" target="55" edge="1">
                    <mxGeometry relative="1" as="geometry">
                        <mxPoint x="470" y="-15" as="targetPoint"/>
                    </mxGeometry>
                </mxCell>
                <mxCell id="186" style="edgeStyle=none;html=1;exitX=1;exitY=0.75;exitDx=0;exitDy=0;entryX=0.711;entryY=0.997;entryDx=0;entryDy=0;entryPerimeter=0;fontFamily=Times New Roman;" parent="1" source="65" target="55" edge="1">
                    <mxGeometry relative="1" as="geometry"/>
                </mxCell>
                <mxCell id="65" value="IROB" style="rounded=0;whiteSpace=wrap;html=1;fontFamily=Times New Roman;fontSize=17;" parent="1" vertex="1">
                    <mxGeometry x="248.5" y="-40" width="83" height="100" as="geometry"/>
                </mxCell>
                <mxCell id="78" style="edgeStyle=none;html=1;exitX=1;exitY=0.5;exitDx=0;exitDy=0;entryX=0;entryY=0.5;entryDx=0;entryDy=0;fontFamily=Times New Roman;fontSize=17;" parent="1" source="75" target="77" edge="1">
                    <mxGeometry relative="1" as="geometry"/>
                </mxCell>
                <mxCell id="75" value="Pre_decode" style="rounded=1;whiteSpace=wrap;html=1;fontFamily=Times New Roman;fontSize=17;" parent="1" vertex="1">
                    <mxGeometry x="650" y="250" width="90" height="160" as="geometry"/>
                </mxCell>
                <mxCell id="139" style="edgeStyle=none;rounded=1;html=1;exitX=0.5;exitY=1;exitDx=0;exitDy=0;strokeWidth=1;fontFamily=Times New Roman;entryX=0.658;entryY=0.004;entryDx=0;entryDy=0;entryPerimeter=0;" parent="1" source="77" target="427" edge="1">
                    <mxGeometry relative="1" as="geometry">
                        <mxPoint x="720" y="520" as="targetPoint"/>
                        <Array as="points">
                            <mxPoint x="840" y="480"/>
                            <mxPoint x="720" y="480"/>
                        </Array>
                    </mxGeometry>
                </mxCell>
                <mxCell id="156" style="edgeStyle=none;html=1;exitX=0.5;exitY=1;exitDx=0;exitDy=0;entryX=0.61;entryY=0.999;entryDx=0;entryDy=0;entryPerimeter=0;" parent="1" source="427" target="304" edge="1">
                    <mxGeometry relative="1" as="geometry">
                        <mxPoint x="-190" y="561" as="targetPoint"/>
                        <Array as="points">
                            <mxPoint x="710" y="610"/>
                            <mxPoint x="710" y="640"/>
                            <mxPoint x="-200" y="640"/>
                        </Array>
                    </mxGeometry>
                </mxCell>
                <mxCell id="429" value="IF2_Redirect" style="edgeLabel;html=1;align=center;verticalAlign=middle;resizable=0;points=[];fontFamily=Times New Roman;" parent="156" vertex="1" connectable="0">
                    <mxGeometry x="0.3878" relative="1" as="geometry">
                        <mxPoint as="offset"/>
                    </mxGeometry>
                </mxCell>
                <mxCell id="450" style="edgeStyle=none;html=1;exitX=1;exitY=0.5;exitDx=0;exitDy=0;" parent="1" source="77" edge="1">
                    <mxGeometry relative="1" as="geometry">
                        <mxPoint x="930" y="329.7777777777776" as="targetPoint"/>
                    </mxGeometry>
                </mxCell>
                <mxCell id="77" value="RAS" style="rounded=0;whiteSpace=wrap;html=1;fontFamily=Times New Roman;fontSize=17;" parent="1" vertex="1">
                    <mxGeometry x="780" y="290" width="120" height="80" as="geometry"/>
                </mxCell>
                <mxCell id="oWSXfFwjr7zpqWsgmYsp-99" value="&lt;font face=&quot;Times New Roman&quot;&gt;Miss&lt;/font&gt;" style="text;html=1;align=center;verticalAlign=middle;resizable=0;points=[];autosize=1;strokeColor=none;fillColor=none;" parent="1" vertex="1">
                    <mxGeometry x="380" y="-40" width="50" height="30" as="geometry"/>
                </mxCell>
                <mxCell id="97" style="edgeStyle=none;html=1;fontFamily=Times New Roman;" parent="1" edge="1">
                    <mxGeometry relative="1" as="geometry">
                        <mxPoint y="-150" as="sourcePoint"/>
                        <mxPoint y="-200" as="targetPoint"/>
                    </mxGeometry>
                </mxCell>
                <mxCell id="103" value="" style="group;" parent="1" vertex="1" connectable="0">
                    <mxGeometry x="930" y="390" width="70" height="210" as="geometry"/>
                </mxCell>
                <mxCell id="104" value="&lt;font face=&quot;Times New Roman&quot;&gt;Decode&lt;br&gt;Reg&lt;br&gt;&lt;/font&gt;" style="rounded=0;whiteSpace=wrap;html=1;" parent="103" vertex="1">
                    <mxGeometry width="70" height="210.00000000000003" as="geometry"/>
                </mxCell>
                <mxCell id="105" value="" style="triangle;whiteSpace=wrap;html=1;fontFamily=Times New Roman;direction=north;" parent="103" vertex="1">
                    <mxGeometry x="24.5" y="189.67741935483875" width="21" height="20.322580645161295" as="geometry"/>
                </mxCell>
                <mxCell id="297" value="EX_PC" style="edgeStyle=none;rounded=1;html=1;strokeWidth=1;fontFamily=Times New Roman;entryX=0.368;entryY=1;entryDx=0;entryDy=0;entryPerimeter=0;" parent="1" target="113" edge="1">
                    <mxGeometry x="-0.007" relative="1" as="geometry">
                        <mxPoint x="-350" y="270" as="sourcePoint"/>
                        <mxPoint as="offset"/>
                    </mxGeometry>
                </mxCell>
                <mxCell id="299" style="edgeStyle=none;rounded=1;html=1;exitX=0.5;exitY=0;exitDx=0;exitDy=0;strokeWidth=1;fontFamily=Times New Roman;entryX=0.5;entryY=1;entryDx=0;entryDy=0;" parent="1" source="113" target="272" edge="1">
                    <mxGeometry relative="1" as="geometry">
                        <mxPoint x="-160" y="255" as="targetPoint"/>
                    </mxGeometry>
                </mxCell>
                <mxCell id="305" style="edgeStyle=none;rounded=1;html=1;exitX=0.5;exitY=0;exitDx=0;exitDy=0;entryX=1;entryY=0.5;entryDx=0;entryDy=0;strokeWidth=1;fontFamily=Times New Roman;" parent="1" source="304" target="113" edge="1">
                    <mxGeometry relative="1" as="geometry"/>
                </mxCell>
                <mxCell id="308" value="RAS_PC" style="edgeStyle=none;rounded=1;html=1;exitX=0.5;exitY=1;exitDx=0;exitDy=0;strokeWidth=1;fontFamily=Times New Roman;entryX=0.5;entryY=1;entryDx=0;entryDy=0;" parent="1" target="113" edge="1">
                    <mxGeometry relative="1" as="geometry">
                        <mxPoint x="-350" y="294.82352941176487" as="sourcePoint"/>
                    </mxGeometry>
                </mxCell>
                <mxCell id="113" value="&lt;font style=&quot;font-size: 13px;&quot;&gt;MUX&lt;/font&gt;" style="shape=trapezoid;perimeter=trapezoidPerimeter;whiteSpace=wrap;html=1;fixedSize=1;fontFamily=Times New Roman;fontSize=17;direction=south;points=[[0,0,0,0,0],[0,0.13,0,0,0],[0,0.25,0,0,0],[0,0.37,0,0,0],[0,0.5,0,0,0],[0,0.63,0,0,0],[0,0.75,0,0,0],[0,0.87,0,0,0],[0,1,0,0,0],[0.27,0.03,0,0,0],[0.27,0.97,0,0,0],[0.51,0.05,0,0,0],[0.51,0.95,0,0,0],[0.71,0.07,0,0,0],[0.71,0.93,0,0,0],[0.91,0.09,0,0,0],[0.91,0.91,0,0,0],[1,0.25,0,0,0],[1,0.5,0,0,0],[1,0.75,0,0,0]];" parent="1" vertex="1">
                    <mxGeometry x="-240" y="200" width="45" height="190" as="geometry"/>
                </mxCell>
                <mxCell id="144" value="RAS_pc" style="text;html=1;align=center;verticalAlign=middle;resizable=0;points=[];autosize=1;strokeColor=none;fillColor=none;fontFamily=Times New Roman;" parent="1" vertex="1">
                    <mxGeometry x="780" y="400" width="60" height="30" as="geometry"/>
                </mxCell>
                <mxCell id="148" value="IF-PREDC" style="rounded=0;whiteSpace=wrap;html=1;fontFamily=Times New Roman;" parent="1" vertex="1">
                    <mxGeometry x="581" y="790" width="379" height="60" as="geometry"/>
                </mxCell>
                <mxCell id="216" style="edgeStyle=none;html=1;entryX=0.25;entryY=1;entryDx=0;entryDy=0;fontFamily=Times New Roman;" parent="1" target="210" edge="1">
                    <mxGeometry relative="1" as="geometry">
                        <mxPoint x="1146" y="239.25" as="sourcePoint"/>
                    </mxGeometry>
                </mxCell>
                <mxCell id="445" style="edgeStyle=none;html=1;exitX=0.5;exitY=0;exitDx=0;exitDy=0;entryX=0.528;entryY=-0.007;entryDx=0;entryDy=0;entryPerimeter=0;" parent="1" target="167" edge="1">
                    <mxGeometry relative="1" as="geometry">
                        <mxPoint x="1010" y="20" as="sourcePoint"/>
                        <Array as="points">
                            <mxPoint x="1100" y="20"/>
                        </Array>
                    </mxGeometry>
                </mxCell>
                <mxCell id="167" value="Decoder0&lt;br&gt;" style="rounded=0;whiteSpace=wrap;html=1;fontFamily=Times New Roman;" parent="1" vertex="1">
                    <mxGeometry x="1036" y="196.25" width="120" height="150" as="geometry"/>
                </mxCell>
                <mxCell id="214" style="edgeStyle=none;html=1;exitX=1;exitY=0.25;exitDx=0;exitDy=0;entryX=0.25;entryY=1;entryDx=0;entryDy=0;fontFamily=Times New Roman;" parent="1" source="168" target="211" edge="1">
                    <mxGeometry relative="1" as="geometry"/>
                </mxCell>
                <mxCell id="168" value="Decoder1" style="rounded=0;whiteSpace=wrap;html=1;fontFamily=Times New Roman;" parent="1" vertex="1">
                    <mxGeometry x="1036" y="438.75" width="120" height="150" as="geometry"/>
                </mxCell>
                <mxCell id="175" value="Decode" style="rounded=0;whiteSpace=wrap;html=1;fontFamily=Times New Roman;" parent="1" vertex="1">
                    <mxGeometry x="960" y="790" width="380" height="60" as="geometry"/>
                </mxCell>
                <mxCell id="180" value="" style="group;fontFamily=Times New Roman;" parent="1" vertex="1" connectable="0">
                    <mxGeometry x="1299" y="170" width="60" height="200" as="geometry"/>
                </mxCell>
                <mxCell id="181" value="EX" style="rounded=0;whiteSpace=wrap;html=1;fontFamily=Times New Roman;" parent="180" vertex="1">
                    <mxGeometry width="60" height="200" as="geometry"/>
                </mxCell>
                <mxCell id="182" value="" style="triangle;whiteSpace=wrap;html=1;fontFamily=Times New Roman;direction=north;" parent="180" vertex="1">
                    <mxGeometry x="21" y="160" width="18" height="40" as="geometry"/>
                </mxCell>
                <mxCell id="183" style="edgeStyle=none;html=1;exitX=1;exitY=0.25;exitDx=0;exitDy=0;fontFamily=Times New Roman;" parent="1" source="181" edge="1">
                    <mxGeometry relative="1" as="geometry">
                        <mxPoint x="1520" y="-130" as="targetPoint"/>
                        <Array as="points">
                            <mxPoint x="1439" y="220"/>
                            <mxPoint x="1439" y="-130"/>
                        </Array>
                    </mxGeometry>
                </mxCell>
                <mxCell id="184" value="FPU&lt;br&gt;Pipe-Line" style="rounded=0;whiteSpace=wrap;html=1;fontFamily=Times New Roman;" parent="1" vertex="1">
                    <mxGeometry x="1520" y="-315" width="50" height="365" as="geometry"/>
                </mxCell>
                <mxCell id="187" value="Inst_4" style="text;html=1;align=center;verticalAlign=middle;resizable=0;points=[];autosize=1;strokeColor=none;fillColor=none;fontFamily=Times New Roman;" parent="1" vertex="1">
                    <mxGeometry x="385" y="35" width="50" height="30" as="geometry"/>
                </mxCell>
                <mxCell id="222" style="edgeStyle=none;html=1;exitX=0.5;exitY=0;exitDx=0;exitDy=0;entryX=0;entryY=0.25;entryDx=0;entryDy=0;fontFamily=Times New Roman;" parent="1" target="221" edge="1">
                    <mxGeometry relative="1" as="geometry">
                        <Array as="points">
                            <mxPoint x="1279" y="275"/>
                            <mxPoint x="1279" y="430"/>
                        </Array>
                        <mxPoint x="1170" y="276.25" as="sourcePoint"/>
                    </mxGeometry>
                </mxCell>
                <mxCell id="210" value="&lt;font style=&quot;font-size: 13px;&quot;&gt;MUX&lt;/font&gt;" style="shape=trapezoid;perimeter=trapezoidPerimeter;whiteSpace=wrap;html=1;fixedSize=1;fontFamily=Times New Roman;fontSize=17;direction=south;" parent="1" vertex="1">
                    <mxGeometry x="1196" y="211.25" width="45" height="110" as="geometry"/>
                </mxCell>
                <mxCell id="223" style="edgeStyle=none;html=1;entryX=0;entryY=0.75;entryDx=0;entryDy=0;fontFamily=Times New Roman;exitX=0.557;exitY=-0.019;exitDx=0;exitDy=0;exitPerimeter=0;" parent="1" source="211" target="221" edge="1">
                    <mxGeometry relative="1" as="geometry">
                        <mxPoint x="1249" y="510" as="sourcePoint"/>
                        <Array as="points">
                            <mxPoint x="1309" y="510"/>
                            <mxPoint x="1309" y="460"/>
                        </Array>
                    </mxGeometry>
                </mxCell>
                <mxCell id="211" value="&lt;font style=&quot;font-size: 13px;&quot;&gt;MUX&lt;/font&gt;" style="shape=trapezoid;perimeter=trapezoidPerimeter;whiteSpace=wrap;html=1;fixedSize=1;fontFamily=Times New Roman;fontSize=17;direction=south;" parent="1" vertex="1">
                    <mxGeometry x="1186" y="448.75" width="45" height="110" as="geometry"/>
                </mxCell>
                <mxCell id="218" style="edgeStyle=none;html=1;exitX=1;exitY=0.5;exitDx=0;exitDy=0;fontFamily=Times New Roman;" parent="1" source="181" edge="1">
                    <mxGeometry relative="1" as="geometry">
                        <mxPoint x="1489" y="270" as="targetPoint"/>
                        <Array as="points">
                            <mxPoint x="1449" y="270"/>
                        </Array>
                    </mxGeometry>
                </mxCell>
                <mxCell id="232" style="edgeStyle=none;html=1;exitX=1;exitY=0.5;exitDx=0;exitDy=0;fontFamily=Times New Roman;entryX=-0.052;entryY=0.83;entryDx=0;entryDy=0;entryPerimeter=0;" parent="1" source="221" target="230" edge="1">
                    <mxGeometry relative="1" as="geometry">
                        <mxPoint x="1520" y="395" as="targetPoint"/>
                    </mxGeometry>
                </mxCell>
                <mxCell id="233" style="edgeStyle=none;html=1;exitX=0.5;exitY=1;exitDx=0;exitDy=0;entryX=-0.008;entryY=0.517;entryDx=0;entryDy=0;fontFamily=Times New Roman;entryPerimeter=0;" parent="1" source="221" target="231" edge="1">
                    <mxGeometry relative="1" as="geometry">
                        <Array as="points">
                            <mxPoint x="1410" y="560"/>
                        </Array>
                    </mxGeometry>
                </mxCell>
                <mxCell id="235" style="edgeStyle=none;html=1;exitX=0.75;exitY=1;exitDx=0;exitDy=0;entryX=0;entryY=0.5;entryDx=0;entryDy=0;fontFamily=Times New Roman;" parent="1" source="221" target="234" edge="1">
                    <mxGeometry relative="1" as="geometry">
                        <Array as="points">
                            <mxPoint x="1440" y="640"/>
                        </Array>
                    </mxGeometry>
                </mxCell>
                <mxCell id="221" value="Issue Queue" style="rounded=0;whiteSpace=wrap;html=1;fontFamily=Times New Roman;" parent="1" vertex="1">
                    <mxGeometry x="1349" y="415" width="120" height="60" as="geometry"/>
                </mxCell>
                <mxCell id="224" value="FADD" style="rounded=0;whiteSpace=wrap;html=1;fontFamily=Times New Roman;" parent="1" vertex="1">
                    <mxGeometry x="1620" y="-315" width="190" height="60" as="geometry"/>
                </mxCell>
                <mxCell id="225" value="FMUL" style="rounded=0;whiteSpace=wrap;html=1;fontFamily=Times New Roman;" parent="1" vertex="1">
                    <mxGeometry x="1620" y="-240" width="190" height="60" as="geometry"/>
                </mxCell>
                <mxCell id="226" value="FMA" style="rounded=0;whiteSpace=wrap;html=1;fontFamily=Times New Roman;" parent="1" vertex="1">
                    <mxGeometry x="1620" y="-160" width="190" height="60" as="geometry"/>
                </mxCell>
                <mxCell id="230" value="Inter&lt;br&gt;PipeLine" style="rounded=0;whiteSpace=wrap;html=1;fontFamily=Times New Roman;" parent="1" vertex="1">
                    <mxGeometry x="1529" y="80" width="50" height="440" as="geometry"/>
                </mxCell>
                <mxCell id="231" value="LSU" style="rounded=0;whiteSpace=wrap;html=1;fontFamily=Times New Roman;" parent="1" vertex="1">
                    <mxGeometry x="1620" y="524" width="290" height="70" as="geometry"/>
                </mxCell>
                <mxCell id="459" style="edgeStyle=none;html=1;exitX=-0.01;exitY=0.836;exitDx=0;exitDy=0;fontFamily=Times New Roman;entryX=0.485;entryY=0.996;entryDx=0;entryDy=0;exitPerimeter=0;entryPerimeter=0;" parent="1" source="234" target="304" edge="1">
                    <mxGeometry relative="1" as="geometry">
                        <mxPoint x="340" y="660" as="targetPoint"/>
                        <Array as="points">
                            <mxPoint x="-220" y="660"/>
                        </Array>
                    </mxGeometry>
                </mxCell>
                <mxCell id="461" value="EX_EU_BCK_Redirect" style="edgeLabel;html=1;align=center;verticalAlign=middle;resizable=0;points=[];fontFamily=Times New Roman;" parent="459" vertex="1" connectable="0">
                    <mxGeometry x="0.6516" relative="1" as="geometry">
                        <mxPoint as="offset"/>
                    </mxGeometry>
                </mxCell>
                <mxCell id="234" value="Branch Unit" style="rounded=0;whiteSpace=wrap;html=1;fontFamily=Times New Roman;" parent="1" vertex="1">
                    <mxGeometry x="1620" y="610" width="120" height="60" as="geometry"/>
                </mxCell>
                <mxCell id="255" value="" style="group;" parent="1" vertex="1" connectable="0">
                    <mxGeometry x="1620" y="210" width="90" height="110" as="geometry"/>
                </mxCell>
                <mxCell id="248" value="" style="endArrow=none;html=1;fontFamily=Times New Roman;" parent="255" edge="1">
                    <mxGeometry width="50" height="50" relative="1" as="geometry">
                        <mxPoint as="sourcePoint"/>
                        <mxPoint x="60" y="27.5" as="targetPoint"/>
                    </mxGeometry>
                </mxCell>
                <mxCell id="249" value="" style="endArrow=none;html=1;fontFamily=Times New Roman;" parent="255" edge="1">
                    <mxGeometry width="50" height="50" relative="1" as="geometry">
                        <mxPoint x="60" y="82.5" as="sourcePoint"/>
                        <mxPoint x="60" y="27.5" as="targetPoint"/>
                    </mxGeometry>
                </mxCell>
                <mxCell id="250" value="" style="endArrow=none;html=1;fontFamily=Times New Roman;" parent="255" edge="1">
                    <mxGeometry width="50" height="50" relative="1" as="geometry">
                        <mxPoint y="41.25" as="sourcePoint"/>
                        <mxPoint as="targetPoint"/>
                    </mxGeometry>
                </mxCell>
                <mxCell id="251" value="" style="endArrow=none;html=1;fontFamily=Times New Roman;" parent="255" edge="1">
                    <mxGeometry width="50" height="50" relative="1" as="geometry">
                        <mxPoint y="41.25" as="sourcePoint"/>
                        <mxPoint x="22.5" y="55" as="targetPoint"/>
                    </mxGeometry>
                </mxCell>
                <mxCell id="252" value="" style="endArrow=none;html=1;fontFamily=Times New Roman;" parent="255" edge="1">
                    <mxGeometry width="50" height="50" relative="1" as="geometry">
                        <mxPoint y="68.75" as="sourcePoint"/>
                        <mxPoint x="22.5" y="55" as="targetPoint"/>
                    </mxGeometry>
                </mxCell>
                <mxCell id="253" value="" style="endArrow=none;html=1;fontFamily=Times New Roman;" parent="255" edge="1">
                    <mxGeometry width="50" height="50" relative="1" as="geometry">
                        <mxPoint y="110" as="sourcePoint"/>
                        <mxPoint x="60" y="82.5" as="targetPoint"/>
                    </mxGeometry>
                </mxCell>
                <mxCell id="254" value="" style="endArrow=none;html=1;fontFamily=Times New Roman;" parent="255" edge="1">
                    <mxGeometry width="50" height="50" relative="1" as="geometry">
                        <mxPoint y="110" as="sourcePoint"/>
                        <mxPoint y="68.75" as="targetPoint"/>
                    </mxGeometry>
                </mxCell>
                <mxCell id="258" value="ALU" style="text;html=1;align=center;verticalAlign=middle;resizable=0;points=[];autosize=1;fontFamily=Times New Roman;rotation=90;" parent="255" vertex="1">
                    <mxGeometry x="10" y="40" width="50" height="30" as="geometry"/>
                </mxCell>
                <mxCell id="259" value="" style="group;" parent="1" vertex="1" connectable="0">
                    <mxGeometry x="1620" y="80" width="90" height="110" as="geometry"/>
                </mxCell>
                <mxCell id="260" value="" style="endArrow=none;html=1;fontFamily=Times New Roman;" parent="259" edge="1">
                    <mxGeometry width="50" height="50" relative="1" as="geometry">
                        <mxPoint as="sourcePoint"/>
                        <mxPoint x="60" y="27.5" as="targetPoint"/>
                    </mxGeometry>
                </mxCell>
                <mxCell id="261" value="" style="endArrow=none;html=1;fontFamily=Times New Roman;" parent="259" edge="1">
                    <mxGeometry width="50" height="50" relative="1" as="geometry">
                        <mxPoint x="60" y="82.5" as="sourcePoint"/>
                        <mxPoint x="60" y="27.5" as="targetPoint"/>
                    </mxGeometry>
                </mxCell>
                <mxCell id="262" value="" style="endArrow=none;html=1;fontFamily=Times New Roman;" parent="259" edge="1">
                    <mxGeometry width="50" height="50" relative="1" as="geometry">
                        <mxPoint y="41.25" as="sourcePoint"/>
                        <mxPoint as="targetPoint"/>
                    </mxGeometry>
                </mxCell>
                <mxCell id="263" value="" style="endArrow=none;html=1;fontFamily=Times New Roman;" parent="259" edge="1">
                    <mxGeometry width="50" height="50" relative="1" as="geometry">
                        <mxPoint y="41.25" as="sourcePoint"/>
                        <mxPoint x="22.5" y="55" as="targetPoint"/>
                    </mxGeometry>
                </mxCell>
                <mxCell id="264" value="" style="endArrow=none;html=1;fontFamily=Times New Roman;" parent="259" edge="1">
                    <mxGeometry width="50" height="50" relative="1" as="geometry">
                        <mxPoint y="68.75" as="sourcePoint"/>
                        <mxPoint x="22.5" y="55" as="targetPoint"/>
                    </mxGeometry>
                </mxCell>
                <mxCell id="265" value="" style="endArrow=none;html=1;fontFamily=Times New Roman;" parent="259" edge="1">
                    <mxGeometry width="50" height="50" relative="1" as="geometry">
                        <mxPoint y="110" as="sourcePoint"/>
                        <mxPoint x="60" y="82.5" as="targetPoint"/>
                    </mxGeometry>
                </mxCell>
                <mxCell id="266" value="" style="endArrow=none;html=1;fontFamily=Times New Roman;" parent="259" edge="1">
                    <mxGeometry width="50" height="50" relative="1" as="geometry">
                        <mxPoint y="110" as="sourcePoint"/>
                        <mxPoint y="68.75" as="targetPoint"/>
                    </mxGeometry>
                </mxCell>
                <mxCell id="267" value="ALU" style="text;html=1;align=center;verticalAlign=middle;resizable=0;points=[];autosize=1;fontFamily=Times New Roman;rotation=90;" parent="259" vertex="1">
                    <mxGeometry x="10" y="40" width="50" height="30" as="geometry"/>
                </mxCell>
                <mxCell id="268" value="&lt;font face=&quot;Times New Roman&quot;&gt;EXCUTE&lt;/font&gt;" style="rounded=0;whiteSpace=wrap;html=1;" parent="1" vertex="1">
                    <mxGeometry x="1340" y="790" width="490" height="60" as="geometry"/>
                </mxCell>
                <mxCell id="269" value="COMMIT" style="rounded=0;whiteSpace=wrap;html=1;fontFamily=Times New Roman;" parent="1" vertex="1">
                    <mxGeometry x="1830" y="790" width="540" height="60" as="geometry"/>
                </mxCell>
                <mxCell id="273" style="edgeStyle=none;html=1;exitX=0;exitY=0.5;exitDx=0;exitDy=0;entryX=0;entryY=0.5;entryDx=0;entryDy=0;" parent="1" target="272" edge="1">
                    <mxGeometry relative="1" as="geometry">
                        <mxPoint x="-127.5" y="220" as="sourcePoint"/>
                    </mxGeometry>
                </mxCell>
                <mxCell id="277" value="&lt;font face=&quot;Times New Roman&quot;&gt;boot_pc&lt;/font&gt;" style="edgeStyle=none;html=1;entryX=0.818;entryY=1.007;entryDx=0;entryDy=0;entryPerimeter=0;" parent="1" target="272" edge="1">
                    <mxGeometry x="-0.4928" relative="1" as="geometry">
                        <mxPoint x="-180" y="420" as="sourcePoint"/>
                        <mxPoint as="offset"/>
                        <mxPoint x="-151" y="330" as="targetPoint"/>
                        <Array as="points">
                            <mxPoint x="-180" y="330"/>
                        </Array>
                    </mxGeometry>
                </mxCell>
                <mxCell id="278" style="edgeStyle=none;html=1;exitX=0.475;exitY=0.015;exitDx=0;exitDy=0;fontFamily=Times New Roman;exitPerimeter=0;entryX=0;entryY=0.25;entryDx=0;entryDy=0;" parent="1" source="272" target="280" edge="1">
                    <mxGeometry relative="1" as="geometry">
                        <mxPoint x="-62" y="292" as="targetPoint"/>
                    </mxGeometry>
                </mxCell>
                <mxCell id="335" style="edgeStyle=none;html=1;exitX=0.471;exitY=0.011;exitDx=0;exitDy=0;entryX=0;entryY=0.5;entryDx=0;entryDy=0;fontFamily=Times New Roman;exitPerimeter=0;strokeWidth=1;" parent="1" source="272" target="49" edge="1">
                    <mxGeometry relative="1" as="geometry">
                        <Array as="points">
                            <mxPoint x="-70" y="292"/>
                            <mxPoint x="-70" y="230"/>
                            <mxPoint x="-70" y="10"/>
                        </Array>
                    </mxGeometry>
                </mxCell>
                <mxCell id="272" value="&lt;font style=&quot;font-size: 13px;&quot;&gt;MUX&lt;/font&gt;" style="shape=trapezoid;perimeter=trapezoidPerimeter;whiteSpace=wrap;html=1;fixedSize=1;fontFamily=Times New Roman;fontSize=17;direction=south;" parent="1" vertex="1">
                    <mxGeometry x="-150" y="240" width="45" height="110" as="geometry"/>
                </mxCell>
                <mxCell id="274" value="&lt;font face=&quot;Times New Roman&quot;&gt;rst&lt;/font&gt;" style="text;html=1;align=center;verticalAlign=middle;resizable=0;points=[];autosize=1;strokeColor=none;fillColor=none;" parent="1" vertex="1">
                    <mxGeometry x="-130" y="230" width="40" height="30" as="geometry"/>
                </mxCell>
                <mxCell id="279" value="" style="group;fontFamily=Times New Roman;" parent="1" vertex="1" connectable="0">
                    <mxGeometry x="-60" y="250" width="50" height="170" as="geometry"/>
                </mxCell>
                <mxCell id="280" value="&lt;font face=&quot;Times New Roman&quot;&gt;PC&lt;/font&gt;" style="rounded=0;whiteSpace=wrap;html=1;fontFamily=Times New Roman;" parent="279" vertex="1">
                    <mxGeometry width="50" height="170" as="geometry"/>
                </mxCell>
                <mxCell id="281" value="" style="triangle;whiteSpace=wrap;html=1;fontFamily=Times New Roman;direction=north;" parent="279" vertex="1">
                    <mxGeometry x="17.5" y="153.54838709677418" width="15" height="16.451612903225804" as="geometry"/>
                </mxCell>
                <mxCell id="282" style="edgeStyle=none;html=1;fontFamily=Times New Roman;strokeWidth=1;" parent="1" edge="1">
                    <mxGeometry relative="1" as="geometry">
                        <mxPoint x="-202" y="160" as="targetPoint"/>
                        <mxPoint x="-10" y="320" as="sourcePoint"/>
                        <Array as="points">
                            <mxPoint x="20" y="320"/>
                            <mxPoint x="50" y="320"/>
                            <mxPoint x="50" y="290"/>
                            <mxPoint x="50" y="160"/>
                        </Array>
                    </mxGeometry>
                </mxCell>
                <mxCell id="328" style="edgeStyle=none;html=1;exitX=0.5;exitY=0;exitDx=0;exitDy=0;entryX=0.27;entryY=0.97;entryDx=0;entryDy=0;entryPerimeter=0;" parent="1" source="284" target="113" edge="1">
                    <mxGeometry relative="1" as="geometry">
                        <Array as="points">
                            <mxPoint x="-290" y="135"/>
                            <mxPoint x="-290" y="175"/>
                            <mxPoint x="-290" y="251"/>
                        </Array>
                    </mxGeometry>
                </mxCell>
                <mxCell id="284" value="ADD" style="shape=trapezoid;perimeter=trapezoidPerimeter;whiteSpace=wrap;html=1;fixedSize=1;fontFamily=Times New Roman;direction=north;" parent="1" vertex="1">
                    <mxGeometry x="-232.5" y="90" width="30" height="90" as="geometry"/>
                </mxCell>
                <mxCell id="294" style="edgeStyle=none;rounded=0;html=1;exitX=0.5;exitY=0;exitDx=0;exitDy=0;strokeWidth=1;fontFamily=Times New Roman;entryX=0.776;entryY=0.998;entryDx=0;entryDy=0;entryPerimeter=0;" parent="1" source="292" target="284" edge="1">
                    <mxGeometry relative="1" as="geometry">
                        <mxPoint x="-150" y="150" as="targetPoint"/>
                    </mxGeometry>
                </mxCell>
                <mxCell id="321" style="edgeStyle=none;html=1;entryX=0;entryY=0.25;entryDx=0;entryDy=0;" parent="1" target="292" edge="1">
                    <mxGeometry relative="1" as="geometry">
                        <mxPoint x="-10" y="320" as="sourcePoint"/>
                        <Array as="points">
                            <mxPoint x="50" y="320"/>
                            <mxPoint x="50" y="200"/>
                            <mxPoint x="50" y="160"/>
                            <mxPoint x="-30" y="160"/>
                            <mxPoint x="-160" y="160"/>
                        </Array>
                    </mxGeometry>
                </mxCell>
                <mxCell id="325" style="edgeStyle=none;html=1;entryX=0.75;entryY=1;entryDx=0;entryDy=0;" parent="1" target="292" edge="1">
                    <mxGeometry relative="1" as="geometry">
                        <mxPoint x="-110" y="90" as="sourcePoint"/>
                    </mxGeometry>
                </mxCell>
                <mxCell id="326" style="edgeStyle=none;html=1;entryX=0.5;entryY=1;entryDx=0;entryDy=0;" parent="1" target="292" edge="1">
                    <mxGeometry relative="1" as="geometry">
                        <mxPoint x="-110" y="110" as="sourcePoint"/>
                    </mxGeometry>
                </mxCell>
                <mxCell id="327" style="edgeStyle=none;html=1;entryX=0.25;entryY=1;entryDx=0;entryDy=0;" parent="1" target="292" edge="1">
                    <mxGeometry relative="1" as="geometry">
                        <mxPoint x="-110" y="130" as="sourcePoint"/>
                    </mxGeometry>
                </mxCell>
                <mxCell id="292" value="&lt;font style=&quot;font-size: 13px;&quot;&gt;MUX&lt;/font&gt;" style="shape=trapezoid;perimeter=trapezoidPerimeter;whiteSpace=wrap;html=1;fixedSize=1;fontFamily=Times New Roman;fontSize=17;direction=north;" parent="1" vertex="1">
                    <mxGeometry x="-170" y="70" width="30" height="80" as="geometry"/>
                </mxCell>
                <mxCell id="462" style="edgeStyle=none;html=1;exitX=0.739;exitY=0.011;exitDx=0;exitDy=0;exitPerimeter=0;" edge="1" parent="1" source="304">
                    <mxGeometry relative="1" as="geometry">
                        <mxPoint x="-90" y="480" as="targetPoint"/>
                        <Array as="points">
                            <mxPoint x="-180" y="480"/>
                        </Array>
                    </mxGeometry>
                </mxCell>
                <mxCell id="304" value="Redirect_Controller" style="rounded=1;whiteSpace=wrap;html=1;fontFamily=Times New Roman;" parent="1" vertex="1">
                    <mxGeometry x="-296.25" y="500" width="157.5" height="60" as="geometry"/>
                </mxCell>
                <mxCell id="313" value="L1_PC" style="endArrow=classic;html=1;rounded=1;strokeWidth=1;fontFamily=Times New Roman;" parent="1" edge="1">
                    <mxGeometry width="50" height="50" relative="1" as="geometry">
                        <mxPoint x="-350" y="320" as="sourcePoint"/>
                        <mxPoint x="-240" y="320" as="targetPoint"/>
                    </mxGeometry>
                </mxCell>
                <mxCell id="331" style="edgeStyle=none;html=1;entryX=0;entryY=0.5;entryDx=0;entryDy=0;" parent="1" target="29" edge="1">
                    <mxGeometry relative="1" as="geometry">
                        <mxPoint x="-10" y="320" as="sourcePoint"/>
                        <Array as="points">
                            <mxPoint x="50" y="320"/>
                            <mxPoint x="50" y="230"/>
                        </Array>
                    </mxGeometry>
                </mxCell>
                <mxCell id="390" style="edgeStyle=none;rounded=1;html=1;exitX=1;exitY=0.5;exitDx=0;exitDy=0;strokeWidth=1;fontFamily=Times New Roman;entryX=0;entryY=0.25;entryDx=0;entryDy=0;entryPerimeter=0;" parent="1" source="29" target="395" edge="1">
                    <mxGeometry relative="1" as="geometry">
                        <mxPoint x="390.0000000000002" y="625.625" as="targetPoint"/>
                        <Array as="points">
                            <mxPoint x="450" y="230"/>
                            <mxPoint x="450" y="625"/>
                        </Array>
                    </mxGeometry>
                </mxCell>
                <mxCell id="397" style="edgeStyle=none;html=1;exitX=1;exitY=0.5;exitDx=0;exitDy=0;entryX=-0.034;entryY=0.136;entryDx=0;entryDy=0;entryPerimeter=0;fontFamily=Times New Roman;" parent="1" source="29" target="343" edge="1">
                    <mxGeometry relative="1" as="geometry">
                        <Array as="points">
                            <mxPoint x="450" y="230"/>
                            <mxPoint x="450" y="280"/>
                        </Array>
                    </mxGeometry>
                </mxCell>
                <mxCell id="29" value="L1-TAGE" style="rounded=0;whiteSpace=wrap;html=1;fontFamily=Times New Roman;container=0;" parent="1" vertex="1">
                    <mxGeometry x="160" y="200" width="260" height="60" as="geometry"/>
                </mxCell>
                <mxCell id="355" style="edgeStyle=none;rounded=0;html=1;exitX=0;exitY=0.5;exitDx=0;exitDy=0;strokeWidth=1;entryX=0;entryY=0.5;entryDx=0;entryDy=0;startArrow=none;" parent="1" source="416" target="88" edge="1">
                    <mxGeometry relative="1" as="geometry">
                        <mxPoint x="-10" y="320.20000000000005" as="sourcePoint"/>
                    </mxGeometry>
                </mxCell>
                <mxCell id="385" style="edgeStyle=none;rounded=1;html=1;exitX=0.692;exitY=1.013;exitDx=0;exitDy=0;strokeWidth=1;fontFamily=Times New Roman;exitPerimeter=0;" parent="1" source="88" edge="1">
                    <mxGeometry relative="1" as="geometry">
                        <mxPoint x="370" y="440" as="targetPoint"/>
                        <Array as="points">
                            <mxPoint x="340" y="390"/>
                            <mxPoint x="340" y="440"/>
                        </Array>
                    </mxGeometry>
                </mxCell>
                <mxCell id="396" style="edgeStyle=none;html=1;exitX=1;exitY=0.5;exitDx=0;exitDy=0;fontFamily=Times New Roman;entryX=0.103;entryY=1;entryDx=0;entryDy=0;entryPerimeter=0;" parent="1" source="88" target="408" edge="1">
                    <mxGeometry relative="1" as="geometry">
                        <mxPoint x="480" y="390" as="targetPoint"/>
                    </mxGeometry>
                </mxCell>
                <mxCell id="88" value="L1 BHB" style="rounded=0;whiteSpace=wrap;html=1;fontFamily=Times New Roman;" parent="1" vertex="1">
                    <mxGeometry x="160" y="290" width="260" height="60" as="geometry"/>
                </mxCell>
                <mxCell id="315" value="" style="triangle;whiteSpace=wrap;html=1;fontFamily=Times New Roman;direction=north;container=0;" parent="1" vertex="1">
                    <mxGeometry x="275" y="330" width="30" height="20" as="geometry"/>
                </mxCell>
                <mxCell id="316" value="" style="triangle;whiteSpace=wrap;html=1;fontFamily=Times New Roman;direction=north;container=0;" parent="1" vertex="1">
                    <mxGeometry x="275" y="240" width="30" height="20" as="geometry"/>
                </mxCell>
                <mxCell id="342" value="" style="group;" parent="1" connectable="0" vertex="1">
                    <mxGeometry x="560" y="237.5" width="60" height="310" as="geometry"/>
                </mxCell>
                <mxCell id="343" value="&lt;font face=&quot;Times New Roman&quot;&gt;PC_&lt;br&gt;Queue&lt;br&gt;&lt;/font&gt;" style="rounded=0;whiteSpace=wrap;html=1;" parent="342" vertex="1">
                    <mxGeometry width="60" height="310" as="geometry"/>
                </mxCell>
                <mxCell id="344" value="" style="triangle;whiteSpace=wrap;html=1;fontFamily=Times New Roman;direction=north;" parent="342" vertex="1">
                    <mxGeometry x="21" y="280" width="18" height="30" as="geometry"/>
                </mxCell>
                <mxCell id="347" value="" style="endArrow=none;dashed=1;html=1;strokeWidth=2;fontFamily=Times New Roman;entryX=1;entryY=0.25;entryDx=0;entryDy=0;" parent="1" edge="1">
                    <mxGeometry width="50" height="50" relative="1" as="geometry">
                        <mxPoint x="-351.5" y="1088.75" as="sourcePoint"/>
                        <mxPoint x="-352" y="-238.75" as="targetPoint"/>
                    </mxGeometry>
                </mxCell>
                <mxCell id="350" value="" style="group;" parent="1" connectable="0" vertex="1">
                    <mxGeometry x="-350" y="790" width="930" height="60" as="geometry"/>
                </mxCell>
                <mxCell id="146" value="IF-0" style="rounded=0;whiteSpace=wrap;html=1;fontFamily=Times New Roman;" parent="350" vertex="1">
                    <mxGeometry width="640" height="60" as="geometry"/>
                </mxCell>
                <mxCell id="349" style="edgeStyle=none;html=1;exitX=0;exitY=0.5;exitDx=0;exitDy=0;strokeWidth=2;strokeColor=none;" parent="350" source="147" edge="1">
                    <mxGeometry relative="1" as="geometry">
                        <mxPoint y="30.117647058823422" as="targetPoint"/>
                    </mxGeometry>
                </mxCell>
                <mxCell id="147" value="IF1" style="rounded=0;whiteSpace=wrap;html=1;fontFamily=Times New Roman;" parent="350" vertex="1">
                    <mxGeometry x="640" width="290" height="60" as="geometry"/>
                </mxCell>
                <mxCell id="356" value="&lt;font face=&quot;Times New Roman&quot;&gt;C_PC&lt;/font&gt;" style="text;html=1;align=center;verticalAlign=middle;resizable=0;points=[];autosize=1;strokeColor=none;fillColor=none;" parent="1" vertex="1">
                    <mxGeometry x="-5" y="290" width="50" height="30" as="geometry"/>
                </mxCell>
                <mxCell id="364" value="L0_PC" style="edgeStyle=none;rounded=1;html=1;exitX=0.5;exitY=1;exitDx=0;exitDy=0;strokeWidth=1;fontFamily=Times New Roman;entryX=0.737;entryY=1;entryDx=0;entryDy=0;entryPerimeter=0;" parent="1" source="358" target="113" edge="1">
                    <mxGeometry relative="1" as="geometry">
                        <mxPoint x="-280" y="340" as="targetPoint"/>
                        <Array as="points">
                            <mxPoint x="180" y="460"/>
                            <mxPoint x="-350" y="460"/>
                            <mxPoint x="-350" y="420"/>
                            <mxPoint x="-350" y="340"/>
                        </Array>
                    </mxGeometry>
                </mxCell>
                <mxCell id="371" style="edgeStyle=none;rounded=1;html=1;exitX=1;exitY=0.5;exitDx=0;exitDy=0;entryX=0.038;entryY=0.204;entryDx=0;entryDy=0;entryPerimeter=0;strokeWidth=1;fontFamily=Times New Roman;" parent="1" source="358" target="369" edge="1">
                    <mxGeometry relative="1" as="geometry"/>
                </mxCell>
                <mxCell id="358" value="L0-Predictor" style="rounded=1;whiteSpace=wrap;html=1;fontFamily=Times New Roman;" parent="1" vertex="1">
                    <mxGeometry x="120" y="380" width="120" height="60" as="geometry"/>
                </mxCell>
                <mxCell id="365" style="edgeStyle=none;rounded=1;html=1;exitX=0.5;exitY=1;exitDx=0;exitDy=0;strokeWidth=1;fontFamily=Times New Roman;entryX=0.865;entryY=0.996;entryDx=0;entryDy=0;entryPerimeter=0;" parent="1" source="359" target="304" edge="1">
                    <mxGeometry relative="1" as="geometry">
                        <Array as="points">
                            <mxPoint x="180" y="600"/>
                            <mxPoint x="-160" y="600"/>
                        </Array>
                    </mxGeometry>
                </mxCell>
                <mxCell id="430" value="IF0_Redirect" style="edgeLabel;html=1;align=center;verticalAlign=middle;resizable=0;points=[];fontFamily=Times New Roman;" parent="365" vertex="1" connectable="0">
                    <mxGeometry x="-0.0657" y="-2" relative="1" as="geometry">
                        <mxPoint x="1" as="offset"/>
                    </mxGeometry>
                </mxCell>
                <mxCell id="373" style="edgeStyle=none;rounded=1;html=1;exitX=1;exitY=0.5;exitDx=0;exitDy=0;strokeWidth=1;fontFamily=Times New Roman;" parent="1" source="359" edge="1">
                    <mxGeometry relative="1" as="geometry">
                        <mxPoint x="260" y="510.1034482758623" as="targetPoint"/>
                    </mxGeometry>
                </mxCell>
                <mxCell id="359" value="L0-BHB" style="rounded=1;whiteSpace=wrap;html=1;fontFamily=Times New Roman;" parent="1" vertex="1">
                    <mxGeometry x="120" y="480" width="120" height="60" as="geometry"/>
                </mxCell>
                <mxCell id="360" style="edgeStyle=none;rounded=1;html=1;exitX=0.98;exitY=0.407;exitDx=0;exitDy=0;entryX=0;entryY=0.5;entryDx=0;entryDy=0;strokeWidth=1;fontFamily=Times New Roman;exitPerimeter=0;startArrow=none;" parent="1" source="416" target="358" edge="1">
                    <mxGeometry relative="1" as="geometry">
                        <Array as="points">
                            <mxPoint x="50" y="319"/>
                            <mxPoint x="50" y="410"/>
                        </Array>
                    </mxGeometry>
                </mxCell>
                <mxCell id="361" style="edgeStyle=none;rounded=1;html=1;exitX=0.997;exitY=0.408;exitDx=0;exitDy=0;entryX=0;entryY=0.5;entryDx=0;entryDy=0;strokeWidth=1;fontFamily=Times New Roman;exitPerimeter=0;startArrow=none;" parent="1" source="416" target="359" edge="1">
                    <mxGeometry relative="1" as="geometry">
                        <Array as="points">
                            <mxPoint x="50" y="319"/>
                            <mxPoint x="50" y="410"/>
                            <mxPoint x="50" y="510"/>
                        </Array>
                    </mxGeometry>
                </mxCell>
                <mxCell id="368" value="" style="group;fontFamily=Times New Roman;" parent="1" connectable="0" vertex="1">
                    <mxGeometry x="257.5" y="377.5" width="65" height="160" as="geometry"/>
                </mxCell>
                <mxCell id="369" value="IF0" style="rounded=0;whiteSpace=wrap;html=1;fontFamily=Times New Roman;" parent="368" vertex="1">
                    <mxGeometry width="65" height="160" as="geometry"/>
                </mxCell>
                <mxCell id="370" value="" style="triangle;whiteSpace=wrap;html=1;fontFamily=Times New Roman;direction=north;" parent="368" vertex="1">
                    <mxGeometry x="22.75" y="144.51612903225805" width="19.5" height="15.483870967741936" as="geometry"/>
                </mxCell>
                <mxCell id="374" style="edgeStyle=none;rounded=1;html=1;strokeWidth=1;fontFamily=Times New Roman;exitX=0.999;exitY=0.95;exitDx=0;exitDy=0;exitPerimeter=0;entryX=0.75;entryY=1;entryDx=0;entryDy=0;" parent="1" source="369" target="408" edge="1">
                    <mxGeometry relative="1" as="geometry">
                        <mxPoint x="490" y="530" as="targetPoint"/>
                        <mxPoint x="330" y="531" as="sourcePoint"/>
                        <Array as="points">
                            <mxPoint x="470" y="530"/>
                            <mxPoint x="470" y="370"/>
                        </Array>
                    </mxGeometry>
                </mxCell>
                <mxCell id="375" value="" style="triangle;whiteSpace=wrap;html=1;fontFamily=Times New Roman;" parent="1" vertex="1">
                    <mxGeometry x="-30" y="25" width="20" height="35" as="geometry"/>
                </mxCell>
                <mxCell id="379" value="" style="group;" parent="1" connectable="0" vertex="1">
                    <mxGeometry x="-80" y="-380" width="350" height="440" as="geometry"/>
                </mxCell>
                <mxCell id="49" value="Inst_Cache(or Memory)" style="rounded=0;whiteSpace=wrap;html=1;fontFamily=Times New Roman;" parent="379" vertex="1">
                    <mxGeometry x="30" y="340" width="260" height="100" as="geometry"/>
                </mxCell>
                <mxCell id="94" value="AXI_Interface" style="rounded=0;whiteSpace=wrap;html=1;fontFamily=Times New Roman;" parent="379" vertex="1">
                    <mxGeometry x="30" y="230" width="210" height="60" as="geometry"/>
                </mxCell>
                <mxCell id="378" value="&lt;font face=&quot;Times New Roman&quot;&gt;Memory&lt;/font&gt;" style="rounded=0;whiteSpace=wrap;html=1;" parent="379" vertex="1">
                    <mxGeometry width="350" height="180" as="geometry"/>
                </mxCell>
                <mxCell id="102" style="edgeStyle=none;html=1;exitX=0.333;exitY=1.008;exitDx=0;exitDy=0;entryX=0.268;entryY=-0.009;entryDx=0;entryDy=0;fontFamily=Times New Roman;exitPerimeter=0;entryPerimeter=0;" parent="379" source="94" target="49" edge="1">
                    <mxGeometry relative="1" as="geometry">
                        <Array as="points"/>
                    </mxGeometry>
                </mxCell>
                <mxCell id="96" style="edgeStyle=none;html=1;exitX=0.571;exitY=1.004;exitDx=0;exitDy=0;fontFamily=Times New Roman;exitPerimeter=0;" parent="379" source="378" edge="1">
                    <mxGeometry relative="1" as="geometry">
                        <mxPoint x="200" y="230" as="targetPoint"/>
                    </mxGeometry>
                </mxCell>
                <mxCell id="380" value="" style="triangle;whiteSpace=wrap;html=1;fontFamily=Times New Roman;direction=east;" parent="379" vertex="1">
                    <mxGeometry x="30" y="410" width="30" height="30" as="geometry"/>
                </mxCell>
                <mxCell id="381" value="" style="triangle;whiteSpace=wrap;html=1;fontFamily=Times New Roman;direction=north;" parent="1" vertex="1">
                    <mxGeometry x="275" y="40" width="30" height="20" as="geometry"/>
                </mxCell>
                <mxCell id="387" style="edgeStyle=none;rounded=1;html=1;exitX=1;exitY=0.5;exitDx=0;exitDy=0;strokeWidth=1;fontFamily=Times New Roman;entryX=0;entryY=0.75;entryDx=0;entryDy=0;entryPerimeter=0;" parent="1" source="386" target="395" edge="1">
                    <mxGeometry relative="1" as="geometry">
                        <mxPoint x="390.0000000000002" y="609.375" as="targetPoint"/>
                        <Array as="points">
                            <mxPoint x="420" y="450"/>
                            <mxPoint x="420" y="615"/>
                        </Array>
                    </mxGeometry>
                </mxCell>
                <mxCell id="386" value="Comp" style="rounded=1;whiteSpace=wrap;html=1;fontFamily=Times New Roman;" parent="1" vertex="1">
                    <mxGeometry x="370" y="420" width="30" height="60" as="geometry"/>
                </mxCell>
                <mxCell id="391" value="IF1_Redirect" style="edgeStyle=none;rounded=1;html=1;entryX=0.739;entryY=0.998;entryDx=0;entryDy=0;strokeWidth=1;fontFamily=Times New Roman;entryPerimeter=0;" parent="1" target="304" edge="1">
                    <mxGeometry relative="1" as="geometry">
                        <mxPoint x="340" y="620" as="sourcePoint"/>
                        <Array as="points">
                            <mxPoint x="-180" y="620"/>
                        </Array>
                    </mxGeometry>
                </mxCell>
                <mxCell id="395" value="" style="verticalLabelPosition=bottom;shadow=0;dashed=0;align=center;html=1;verticalAlign=top;shape=mxgraph.electrical.logic_gates.logic_gate;operation=xor;fontFamily=Times New Roman;direction=west;" parent="1" vertex="1">
                    <mxGeometry x="333" y="610" width="37" height="20" as="geometry"/>
                </mxCell>
                <mxCell id="398" value="" style="group;" parent="1" vertex="1" connectable="0">
                    <mxGeometry x="250" y="90" width="71" height="80" as="geometry"/>
                </mxCell>
                <mxCell id="399" value="&lt;font face=&quot;Times New Roman&quot;&gt;IF0&lt;/font&gt;" style="rounded=0;whiteSpace=wrap;html=1;" parent="398" vertex="1">
                    <mxGeometry width="71" height="80" as="geometry"/>
                </mxCell>
                <mxCell id="400" value="" style="triangle;whiteSpace=wrap;html=1;fontFamily=Times New Roman;direction=north;" parent="398" vertex="1">
                    <mxGeometry x="24.849999999999998" y="72.25806451612902" width="21.299999999999997" height="7.741935483870968" as="geometry"/>
                </mxCell>
                <mxCell id="401" style="edgeStyle=none;html=1;exitX=0;exitY=0.5;exitDx=0;exitDy=0;entryX=0;entryY=0.5;entryDx=0;entryDy=0;" parent="1" target="399" edge="1">
                    <mxGeometry relative="1" as="geometry">
                        <mxPoint x="130" y="130" as="sourcePoint"/>
                    </mxGeometry>
                </mxCell>
                <mxCell id="402" style="edgeStyle=none;html=1;exitX=1;exitY=0.5;exitDx=0;exitDy=0;" parent="1" source="399" edge="1">
                    <mxGeometry relative="1" as="geometry">
                        <mxPoint x="380" y="130" as="targetPoint"/>
                    </mxGeometry>
                </mxCell>
                <mxCell id="403" value="&lt;font face=&quot;Times New Roman&quot;&gt;IF_0_PC[3:2]&lt;/font&gt;" style="text;html=1;align=center;verticalAlign=middle;resizable=0;points=[];autosize=1;strokeColor=none;fillColor=none;" parent="1" vertex="1">
                    <mxGeometry x="125" y="105" width="90" height="30" as="geometry"/>
                </mxCell>
                <mxCell id="404" value="&lt;font face=&quot;Times New Roman&quot;&gt;IF_1_PC[3:2]&lt;/font&gt;" style="text;html=1;align=center;verticalAlign=middle;resizable=0;points=[];autosize=1;strokeColor=none;fillColor=none;" parent="1" vertex="1">
                    <mxGeometry x="324" y="95" width="90" height="30" as="geometry"/>
                </mxCell>
                <mxCell id="410" style="edgeStyle=none;html=1;exitX=0.5;exitY=0;exitDx=0;exitDy=0;entryX=-0.016;entryY=0.368;entryDx=0;entryDy=0;entryPerimeter=0;fontFamily=Times New Roman;" parent="1" source="408" target="343" edge="1">
                    <mxGeometry relative="1" as="geometry"/>
                </mxCell>
                <mxCell id="408" value="&lt;font style=&quot;font-size: 13px;&quot;&gt;MUX&lt;/font&gt;" style="shape=trapezoid;perimeter=trapezoidPerimeter;whiteSpace=wrap;html=1;fixedSize=1;fontFamily=Times New Roman;fontSize=17;direction=south;" parent="1" vertex="1">
                    <mxGeometry x="500" y="312" width="32" height="78" as="geometry"/>
                </mxCell>
                <mxCell id="411" style="edgeStyle=none;html=1;exitX=1.002;exitY=0.951;exitDx=0;exitDy=0;fontFamily=Times New Roman;entryX=0;entryY=0.833;entryDx=0;entryDy=0;exitPerimeter=0;entryPerimeter=0;" parent="1" source="369" target="386" edge="1">
                    <mxGeometry relative="1" as="geometry">
                        <mxPoint x="330" y="510" as="sourcePoint"/>
                        <Array as="points">
                            <mxPoint x="340" y="530"/>
                            <mxPoint x="340" y="470"/>
                        </Array>
                    </mxGeometry>
                </mxCell>
                <mxCell id="417" value="" style="edgeStyle=none;rounded=1;html=1;entryX=0;entryY=0.5;entryDx=0;entryDy=0;strokeWidth=1;fontFamily=Times New Roman;endArrow=none;" parent="1" target="416" edge="1">
                    <mxGeometry relative="1" as="geometry">
                        <Array as="points"/>
                        <mxPoint x="-10" y="320" as="sourcePoint"/>
                        <mxPoint x="120" y="510" as="targetPoint"/>
                    </mxGeometry>
                </mxCell>
                <mxCell id="418" value="" style="edgeStyle=none;rounded=1;html=1;entryX=0;entryY=0.5;entryDx=0;entryDy=0;strokeWidth=1;fontFamily=Times New Roman;endArrow=none;" parent="1" target="416" edge="1">
                    <mxGeometry relative="1" as="geometry">
                        <Array as="points"/>
                        <mxPoint x="-10" y="320" as="sourcePoint"/>
                        <mxPoint x="120" y="410" as="targetPoint"/>
                    </mxGeometry>
                </mxCell>
                <mxCell id="419" value="" style="edgeStyle=none;rounded=0;html=1;strokeWidth=1;entryX=0;entryY=0.5;entryDx=0;entryDy=0;endArrow=none;" parent="1" target="416" edge="1">
                    <mxGeometry relative="1" as="geometry">
                        <mxPoint x="-10" y="320" as="sourcePoint"/>
                        <mxPoint x="160" y="320" as="targetPoint"/>
                    </mxGeometry>
                </mxCell>
                <mxCell id="416" value="" style="ellipse;whiteSpace=wrap;html=1;aspect=fixed;fontFamily=Times New Roman;strokeColor=#000000;fillColor=#FFFFFF;" parent="1" vertex="1">
                    <mxGeometry x="45" y="315" width="10" height="10" as="geometry"/>
                </mxCell>
                <mxCell id="421" style="edgeStyle=none;html=1;exitX=0.5;exitY=0;exitDx=0;exitDy=0;strokeWidth=1;fontFamily=Times New Roman;entryX=0.5;entryY=0;entryDx=0;entryDy=0;" parent="1" source="55" target="75" edge="1">
                    <mxGeometry relative="1" as="geometry">
                        <mxPoint x="650.0000000000002" y="189.99999999999977" as="targetPoint"/>
                        <Array as="points">
                            <mxPoint x="695" y="10"/>
                        </Array>
                        <mxPoint x="610" y="10" as="sourcePoint"/>
                    </mxGeometry>
                </mxCell>
                <mxCell id="423" style="edgeStyle=none;html=1;exitX=1;exitY=0.75;exitDx=0;exitDy=0;strokeWidth=1;fontFamily=Times New Roman;entryX=0.331;entryY=0.004;entryDx=0;entryDy=0;entryPerimeter=0;" parent="1" source="343" target="427" edge="1">
                    <mxGeometry relative="1" as="geometry">
                        <mxPoint x="700" y="520" as="targetPoint"/>
                        <Array as="points">
                            <mxPoint x="700" y="470"/>
                        </Array>
                    </mxGeometry>
                </mxCell>
                <mxCell id="427" value="Comp" style="rounded=1;whiteSpace=wrap;html=1;fontFamily=Times New Roman;" parent="1" vertex="1">
                    <mxGeometry x="680" y="524" width="60" height="60" as="geometry"/>
                </mxCell>
                <mxCell id="431" value="&lt;font face=&quot;Times New Roman&quot;&gt;2&lt;/font&gt;" style="text;html=1;align=center;verticalAlign=middle;resizable=0;points=[];autosize=1;strokeColor=none;fillColor=none;" parent="1" vertex="1">
                    <mxGeometry x="-115" y="75" width="30" height="30" as="geometry"/>
                </mxCell>
                <mxCell id="433" value="&lt;font face=&quot;Garamond&quot;&gt;4&lt;/font&gt;" style="text;html=1;align=center;verticalAlign=middle;resizable=0;points=[];autosize=1;strokeColor=none;fillColor=none;" parent="1" vertex="1">
                    <mxGeometry x="-115" y="95" width="30" height="30" as="geometry"/>
                </mxCell>
                <mxCell id="437" value="&lt;font face=&quot;Times New Roman&quot;&gt;8&lt;/font&gt;" style="text;html=1;align=center;verticalAlign=middle;resizable=0;points=[];autosize=1;strokeColor=none;fillColor=none;" parent="1" vertex="1">
                    <mxGeometry x="-115" y="115" width="30" height="30" as="geometry"/>
                </mxCell>
                <mxCell id="438" style="edgeStyle=none;html=1;exitX=0.5;exitY=0;exitDx=0;exitDy=0;entryX=0;entryY=0.462;entryDx=0;entryDy=0;entryPerimeter=0;" parent="1" source="55" target="440" edge="1">
                    <mxGeometry relative="1" as="geometry">
                        <mxPoint x="900" y="10" as="targetPoint"/>
                        <mxPoint x="610" y="10" as="sourcePoint"/>
                    </mxGeometry>
                </mxCell>
                <mxCell id="439" value="" style="group;" parent="1" vertex="1" connectable="0">
                    <mxGeometry x="930" y="-110" width="80" height="225" as="geometry"/>
                </mxCell>
                <mxCell id="440" value="&lt;font face=&quot;Times New Roman&quot;&gt;Inst_Buffer&lt;/font&gt;" style="rounded=0;whiteSpace=wrap;html=1;" parent="439" vertex="1">
                    <mxGeometry y="30" width="80" height="195" as="geometry"/>
                </mxCell>
                <mxCell id="441" value="" style="triangle;whiteSpace=wrap;html=1;fontFamily=Times New Roman;direction=north;" parent="439" vertex="1">
                    <mxGeometry x="25" y="206.1290322580645" width="30" height="18.870967741935484" as="geometry"/>
                </mxCell>
                <mxCell id="443" style="edgeStyle=none;html=1;exitX=1.012;exitY=0.51;exitDx=0;exitDy=0;exitPerimeter=0;" parent="1" source="440" edge="1">
                    <mxGeometry relative="1" as="geometry">
                        <mxPoint x="1220" y="20" as="targetPoint"/>
                    </mxGeometry>
                </mxCell>
                <mxCell id="447" value="" style="group;" parent="1" vertex="1" connectable="0">
                    <mxGeometry x="930" y="167.5" width="70" height="210" as="geometry"/>
                </mxCell>
                <mxCell id="448" value="&lt;font face=&quot;Times New Roman&quot;&gt;PC_Buffer&lt;br&gt;&lt;/font&gt;" style="rounded=0;whiteSpace=wrap;html=1;" parent="447" vertex="1">
                    <mxGeometry width="70" height="210.00000000000003" as="geometry"/>
                </mxCell>
                <mxCell id="449" value="" style="triangle;whiteSpace=wrap;html=1;fontFamily=Times New Roman;direction=north;" parent="447" vertex="1">
                    <mxGeometry x="24.5" y="189.67741935483875" width="21" height="20.322580645161295" as="geometry"/>
                </mxCell>
                <mxCell id="454" value="FDIV" style="rounded=0;whiteSpace=wrap;html=1;fontFamily=Times New Roman;" parent="1" vertex="1">
                    <mxGeometry x="1620" y="-80" width="190" height="60" as="geometry"/>
                </mxCell>
                <mxCell id="455" value="FSQRT" style="rounded=0;whiteSpace=wrap;html=1;fontFamily=Times New Roman;" parent="1" vertex="1">
                    <mxGeometry x="1620" width="190" height="60" as="geometry"/>
                </mxCell>
                <mxCell id="457" value="&lt;font face=&quot;Times New Roman&quot;&gt;MUL&lt;/font&gt;" style="rounded=0;whiteSpace=wrap;html=1;" parent="1" vertex="1">
                    <mxGeometry x="1620" y="350" width="290" height="60" as="geometry"/>
                </mxCell>
                <mxCell id="458" value="&lt;font face=&quot;Times New Roman&quot;&gt;DIV&lt;/font&gt;" style="rounded=0;whiteSpace=wrap;html=1;" parent="1" vertex="1">
                    <mxGeometry x="1620" y="438.75" width="290" height="60" as="geometry"/>
                </mxCell>
                <mxCell id="463" value="&lt;font face=&quot;Times New Roman&quot;&gt;Seq&lt;/font&gt;" style="text;html=1;align=center;verticalAlign=middle;resizable=0;points=[];autosize=1;strokeColor=none;fillColor=none;" vertex="1" parent="1">
                    <mxGeometry x="-140" y="475" width="40" height="30" as="geometry"/>
                </mxCell>
            </root>
        </mxGraphModel>
    </diagram>
</mxfile>